<?xml version="1.0" encoding="UTF-8"?><svg xmlns="http://www.w3.org/2000/svg" xmlns:xlink="http://www.w3.org/1999/xlink" height="518.5" preserveAspectRatio="xMidYMid meet" version="1.0" viewBox="-31.8 -15.0 553.6 518.5" width="553.6" zoomAndPan="magnify"><linearGradient gradientUnits="userSpaceOnUse" id="a" x1="150.366" x2="246.636" xlink:actuate="onLoad" xlink:show="other" xlink:type="simple" xmlns:xlink="http://www.w3.org/1999/xlink" y1="309.608" y2="397.299"><stop offset="0" stop-color="#1cdaff"/><stop offset="1" stop-color="#4586ff"/></linearGradient><path d="M89.1711349,457.856842C33.163002,389.3713074,145.891983,323.878479,195.8607635,298.404541 c19.9576263-10.1743164,152.3794098-73.5566254,136.3118134-7.8911133 c-15.2248535,62.2213135-363.8970337,84.5240784-201.6213684,192.5897827 C115.3228226,479.2813416,99.2423935,470.0572815,89.1711349,457.856842z" fill="url(#a)"/><linearGradient gradientUnits="userSpaceOnUse" id="b" x1="74.932" x2="159.27" xlink:actuate="onLoad" xlink:show="other" xlink:type="simple" xmlns:xlink="http://www.w3.org/1999/xlink" y1="403.758" y2="480.581"><stop offset="0" stop-color="#1cdaff"/><stop offset="1" stop-color="#4586ff"/></linearGradient><path d="M93.2482605,461.2888489c0,0,37.7107849,29.0256958,96.7716827,22.2782593 c35.105423-4.0106201,28.1553955,19.9410095-10.0926819,15.991272 C119.3711472,493.3049622,93.2482605,461.2888489,93.2482605,461.2888489z" fill="url(#b)"/><linearGradient gradientUnits="userSpaceOnUse" id="c" x1="141.04" x2="356.853" xlink:actuate="onLoad" xlink:show="other" xlink:type="simple" xmlns:xlink="http://www.w3.org/1999/xlink" y1="128.575" y2="325.157"><stop offset="0" stop-color="#1cdaff"/><stop offset="1" stop-color="#4586ff"/></linearGradient><path d="M179.9272614,499.5583801c0,0-185.4772949-39.8312073-82.6459656-146.2104492 s213.8508759-97.1533508,318.1419678-165.6866455S521.8018799-15.0394278,357.1099548,1.3800067 C171.5166931,19.8832626,40.1351967,243.9055939,31.8129158,370.7546387S179.9272614,499.5583801,179.9272614,499.5583801z" fill="url(#c)"/><linearGradient gradientTransform="rotate(-6.061 69.523 335)" gradientUnits="userSpaceOnUse" id="d" x1="19.082" x2="104.69" xlink:actuate="onLoad" xlink:show="other" xlink:type="simple" xmlns:xlink="http://www.w3.org/1999/xlink" y1="201.754" y2="279.734"><stop offset="0" stop-color="#1cdaff"/><stop offset="1" stop-color="#4586ff"/></linearGradient><path d="M19.0049992,375.9307861c0,0-50.7638626-86.8944397,13.6396122-202.5571136 c41.2460594-74.0740967,84.1758118-60.4366684,74.7509918-32.3708344s-29.701561,37.8360291-58.6071434,99.4471893 C28.5574226,283.5717468,19.0049992,375.9307861,19.0049992,375.9307861z" fill="url(#d)"/><linearGradient gradientTransform="matrix(.59475 1.63372 -.89227 .4515 200.125 -374.244)" gradientUnits="userSpaceOnUse" id="e" x1="346.372" x2="408.24" xlink:actuate="onLoad" xlink:show="other" xlink:type="simple" xmlns:xlink="http://www.w3.org/1999/xlink" y1="-.882" y2="55.472"><stop offset="0" stop-color="#1cdaff"/><stop offset="1" stop-color="#4586ff"/></linearGradient><path d="M416.918457,276.1253357c-17.598114,7.8213806-61.4504395,23.5775452-69.8213196-3.2493591 c-4.4651794-14.309845,1.3967896-32.0246735,50.2308655-51.4022064c19.5904541-7.7735596,48.0635681-12.232254,56.9707947,7.9261627 C461.401062,245.4734802,433.739624,268.6492615,416.918457,276.1253357z" fill="url(#e)"/><linearGradient gradientTransform="rotate(-6.061 69.523 335)" gradientUnits="userSpaceOnUse" id="f" x1="195.393" x2="63.628" xlink:actuate="onLoad" xlink:show="other" xlink:type="simple" xmlns:xlink="http://www.w3.org/1999/xlink" y1="62.829" y2="172.166"><stop offset="0" stop-color="#1cdaff"/><stop offset="1" stop-color="#4586ff"/></linearGradient><path d="M120.7428513,64.0783539c-17.2642975,14.5524216-24.5049744,34.3630676-16.1725006,44.2483139 s29.082756,6.1017532,46.3470535-8.4506683s24.5049744-34.3630676,16.1725006-44.2483101 S138.0071564,49.5259361,120.7428513,64.0783539z" fill="url(#f)"/></svg>